%TF.GenerationSoftware,KiCad,Pcbnew,(6.0.8)*%
%TF.CreationDate,2022-10-10T22:04:54+01:00*%
%TF.ProjectId,keyboard-pcb,6b657962-6f61-4726-942d-7063622e6b69,1.0*%
%TF.SameCoordinates,Original*%
%TF.FileFunction,Copper,L1,Top*%
%TF.FilePolarity,Positive*%
%FSLAX46Y46*%
G04 Gerber Fmt 4.6, Leading zero omitted, Abs format (unit mm)*
G04 Created by KiCad (PCBNEW (6.0.8)) date 2022-10-10 22:04:54*
%MOMM*%
%LPD*%
G01*
G04 APERTURE LIST*
%TA.AperFunction,ComponentPad*%
%ADD10C,2.200000*%
%TD*%
%TA.AperFunction,ComponentPad*%
%ADD11R,2.000000X2.000000*%
%TD*%
%TA.AperFunction,ComponentPad*%
%ADD12C,2.000000*%
%TD*%
%TA.AperFunction,ComponentPad*%
%ADD13R,3.200000X2.000000*%
%TD*%
%TA.AperFunction,ComponentPad*%
%ADD14O,1.700000X1.700000*%
%TD*%
%TA.AperFunction,ComponentPad*%
%ADD15R,1.700000X1.700000*%
%TD*%
%TA.AperFunction,Conductor*%
%ADD16C,0.250000*%
%TD*%
G04 APERTURE END LIST*
D10*
%TO.P,MX28,1,COL*%
%TO.N,COL_7*%
X228219000Y-146041000D03*
%TO.P,MX28,2,ROW*%
%TO.N,Net-(D35-Pad2)*%
X221869000Y-148581000D03*
%TD*%
%TO.P,ALT1,1,COL*%
%TO.N,COL_2*%
X130683000Y-184150000D03*
%TO.P,ALT1,2,ROW*%
%TO.N,Net-(ALT1-Pad2)*%
X124333000Y-186690000D03*
%TD*%
%TO.P,DEL1,1,COL*%
%TO.N,COL_13*%
X337820000Y-127000000D03*
%TO.P,DEL1,2,ROW*%
%TO.N,Net-(D62-Pad2)*%
X331470000Y-129540000D03*
%TD*%
%TO.P,MX32,1,COL*%
%TO.N,COL_8*%
X247269000Y-146041000D03*
%TO.P,MX32,2,ROW*%
%TO.N,Net-(D39-Pad2)*%
X240919000Y-148581000D03*
%TD*%
%TO.P,SUP1,1,COL*%
%TO.N,COL_1*%
X106857800Y-184150000D03*
%TO.P,SUP1,2,ROW*%
%TO.N,Net-(D10-Pad2)*%
X100507800Y-186690000D03*
%TD*%
%TO.P,MX46,1,COL*%
%TO.N,COL_12*%
X309245000Y-107950000D03*
%TO.P,MX46,2,ROW*%
%TO.N,Net-(D56-Pad2)*%
X302895000Y-110490000D03*
%TD*%
%TO.P,MX43,1,COL*%
%TO.N,COL_11*%
X299694600Y-126991000D03*
%TO.P,MX43,2,ROW*%
%TO.N,Net-(D52-Pad2)*%
X293344600Y-129531000D03*
%TD*%
%TO.P,DWN1,1,COL*%
%TO.N,COL_12*%
X337820000Y-184150000D03*
%TO.P,DWN1,2,ROW*%
%TO.N,Net-(D60-Pad2)*%
X331470000Y-186690000D03*
%TD*%
%TO.P,MX12,1,COL*%
%TO.N,COL_3*%
X152019000Y-146041000D03*
%TO.P,MX12,2,ROW*%
%TO.N,Net-(D18-Pad2)*%
X145669000Y-148581000D03*
%TD*%
%TO.P,MX33,1,COL*%
%TO.N,COL_8*%
X237794800Y-165091000D03*
%TO.P,MX33,2,ROW*%
%TO.N,Net-(D40-Pad2)*%
X231444800Y-167631000D03*
%TD*%
%TO.P,FNC1,1,COL*%
%TO.N,COL_10*%
X297332400Y-184150000D03*
%TO.P,FNC1,2,ROW*%
%TO.N,Net-(D50-Pad2)*%
X290982400Y-186690000D03*
%TD*%
%TO.P,MX29,1,COL*%
%TO.N,COL_7*%
X218744800Y-165091000D03*
%TO.P,MX29,2,ROW*%
%TO.N,Net-(D36-Pad2)*%
X212394800Y-167631000D03*
%TD*%
%TO.P,MX8,1,COL*%
%TO.N,COL_2*%
X132969000Y-146041000D03*
%TO.P,MX8,2,ROW*%
%TO.N,Net-(D13-Pad2)*%
X126619000Y-148581000D03*
%TD*%
%TO.P,MX27,1,COL*%
%TO.N,COL_7*%
X223494600Y-126991000D03*
%TO.P,MX27,2,ROW*%
%TO.N,Net-(D34-Pad2)*%
X217144600Y-129531000D03*
%TD*%
%TO.P,MX23,1,COL*%
%TO.N,COL_6*%
X204444600Y-126991000D03*
%TO.P,MX23,2,ROW*%
%TO.N,Net-(D29-Pad2)*%
X198094600Y-129531000D03*
%TD*%
%TO.P,MX14,1,COL*%
%TO.N,COL_4*%
X156845000Y-107950000D03*
%TO.P,MX14,2,ROW*%
%TO.N,Net-(D20-Pad2)*%
X150495000Y-110490000D03*
%TD*%
%TO.P,MX16,1,COL*%
%TO.N,COL_4*%
X171069000Y-146041000D03*
%TO.P,MX16,2,ROW*%
%TO.N,Net-(D22-Pad2)*%
X164719000Y-148581000D03*
%TD*%
%TO.P,MX48,1,COL*%
%TO.N,COL_12*%
X316382400Y-165091000D03*
%TO.P,MX48,2,ROW*%
%TO.N,Net-(D59-Pad2)*%
X310032400Y-167631000D03*
%TD*%
%TO.P,SHFT1,1,COL*%
%TO.N,COL_0*%
X83032600Y-165100000D03*
%TO.P,SHFT1,2,ROW*%
%TO.N,Net-(D4-Pad2)*%
X76682600Y-167640000D03*
%TD*%
%TO.P,MX38,1,COL*%
%TO.N,COL_10*%
X271145000Y-107950000D03*
%TO.P,MX38,2,ROW*%
%TO.N,Net-(D46-Pad2)*%
X264795000Y-110490000D03*
%TD*%
%TO.P,MX13,1,COL*%
%TO.N,COL_3*%
X142544800Y-165091000D03*
%TO.P,MX13,2,ROW*%
%TO.N,Net-(D19-Pad2)*%
X136194800Y-167631000D03*
%TD*%
%TO.P,MX26,1,COL*%
%TO.N,COL_7*%
X213995000Y-107950000D03*
%TO.P,MX26,2,ROW*%
%TO.N,Net-(D33-Pad2)*%
X207645000Y-110490000D03*
%TD*%
D11*
%TO.P,SW1,A,A*%
%TO.N,GND*%
X346826000Y-110521000D03*
D12*
%TO.P,SW1,B,B*%
%TO.N,Net-(D65-Pad2)*%
X346826000Y-115521000D03*
%TO.P,SW1,C,C*%
%TO.N,COL_13*%
X346826000Y-113021000D03*
D13*
%TO.P,SW1,MP*%
%TO.N,N/C*%
X354326000Y-118621000D03*
X354326000Y-107421000D03*
D12*
%TO.P,SW1,S1,S1*%
%TO.N,DT*%
X361326000Y-115521000D03*
%TO.P,SW1,S2,S2*%
%TO.N,CLK*%
X361326000Y-110521000D03*
%TD*%
D10*
%TO.P,MX30,1,COL*%
%TO.N,COL_8*%
X233045000Y-107950000D03*
%TO.P,MX30,2,ROW*%
%TO.N,Net-(D37-Pad2)*%
X226695000Y-110490000D03*
%TD*%
%TO.P,TAB1,1,COL*%
%TO.N,COL_0*%
X85394800Y-127000000D03*
%TO.P,TAB1,2,ROW*%
%TO.N,Net-(D2-Pad2)*%
X79044800Y-129540000D03*
%TD*%
%TO.P,MX6,1,COL*%
%TO.N,COL_2*%
X118745000Y-107941000D03*
%TO.P,MX6,2,ROW*%
%TO.N,Net-(D11-Pad2)*%
X112395000Y-110481000D03*
%TD*%
%TO.P,MX34,1,COL*%
%TO.N,COL_9*%
X252095000Y-107950000D03*
%TO.P,MX34,2,ROW*%
%TO.N,Net-(D41-Pad2)*%
X245745000Y-110490000D03*
%TD*%
%TO.P,MX10,1,COL*%
%TO.N,COL_3*%
X137795000Y-107941000D03*
%TO.P,MX10,2,ROW*%
%TO.N,Net-(D16-Pad2)*%
X131445000Y-110481000D03*
%TD*%
%TO.P,MX47,1,COL*%
%TO.N,COL_12*%
X318744600Y-126991000D03*
%TO.P,MX47,2,ROW*%
%TO.N,Net-(D57-Pad2)*%
X312394600Y-129531000D03*
%TD*%
%TO.P,RHT1,1,COL*%
%TO.N,COL_13*%
X356870000Y-184150000D03*
%TO.P,RHT1,2,ROW*%
%TO.N,Net-(D64-Pad2)*%
X350520000Y-186690000D03*
%TD*%
%TO.P,MX4,1,COL*%
%TO.N,COL_1*%
X113919000Y-146041000D03*
%TO.P,MX4,2,ROW*%
%TO.N,Net-(D8-Pad2)*%
X107569000Y-148581000D03*
%TD*%
%TO.P,MX24,1,COL*%
%TO.N,COL_6*%
X209169000Y-146041000D03*
%TO.P,MX24,2,ROW*%
%TO.N,Net-(D30-Pad2)*%
X202819000Y-148581000D03*
%TD*%
%TO.P,CTRL1,1,COL*%
%TO.N,COL_0*%
X83032600Y-184150000D03*
%TO.P,CTRL1,2,ROW*%
%TO.N,Net-(CTRL1-Pad2)*%
X76682600Y-186690000D03*
%TD*%
%TO.P,MX11,1,COL*%
%TO.N,COL_3*%
X147294600Y-126991000D03*
%TO.P,MX11,2,ROW*%
%TO.N,Net-(D17-Pad2)*%
X140944600Y-129531000D03*
%TD*%
%TO.P,BKSP1,1,COL*%
%TO.N,COL_13*%
X333044800Y-107950000D03*
%TO.P,BKSP1,2,ROW*%
%TO.N,Net-(BKSP1-Pad2)*%
X326694800Y-110490000D03*
%TD*%
%TO.P,ALT2,1,COL*%
%TO.N,COL_9*%
X273532600Y-184150000D03*
%TO.P,ALT2,2,ROW*%
%TO.N,Net-(ALT2-Pad2)*%
X267182600Y-186690000D03*
%TD*%
%TO.P,MX41,1,COL*%
%TO.N,COL_10*%
X275894800Y-165091000D03*
%TO.P,MX41,2,ROW*%
%TO.N,Net-(D49-Pad2)*%
X269544800Y-167631000D03*
%TD*%
%TO.P,SPC1,1,COL*%
%TO.N,COL_6*%
X202107800Y-184134800D03*
%TO.P,SPC1,2,ROW*%
%TO.N,Net-(D32-Pad2)*%
X195757800Y-186674800D03*
%TD*%
%TO.P,MX18,1,COL*%
%TO.N,COL_5*%
X175895000Y-107950000D03*
%TO.P,MX18,2,ROW*%
%TO.N,Net-(D24-Pad2)*%
X169545000Y-110490000D03*
%TD*%
%TO.P,MX36,1,COL*%
%TO.N,COL_9*%
X266344400Y-146041000D03*
%TO.P,MX36,2,ROW*%
%TO.N,Net-(D43-Pad2)*%
X259994400Y-148581000D03*
%TD*%
%TO.P,MX25,1,COL*%
%TO.N,COL_6*%
X199694800Y-165091000D03*
%TO.P,MX25,2,ROW*%
%TO.N,Net-(D31-Pad2)*%
X193344800Y-167631000D03*
%TD*%
%TO.P,ENT1,1,COL*%
%TO.N,COL_12*%
X330682600Y-146050000D03*
%TO.P,ENT1,2,ROW*%
%TO.N,Net-(D58-Pad2)*%
X324332600Y-148590000D03*
%TD*%
%TO.P,MX2,1,COL*%
%TO.N,COL_1*%
X99695000Y-107950000D03*
%TO.P,MX2,2,ROW*%
%TO.N,Net-(D6-Pad2)*%
X93345000Y-110490000D03*
%TD*%
%TO.P,MX15,1,COL*%
%TO.N,COL_4*%
X166344600Y-126991000D03*
%TO.P,MX15,2,ROW*%
%TO.N,Net-(D21-Pad2)*%
X159994600Y-129531000D03*
%TD*%
%TO.P,CAP1,1,COL*%
%TO.N,COL_0*%
X83032600Y-146050000D03*
%TO.P,CAP1,2,ROW*%
%TO.N,Net-(CAP1-Pad2)*%
X76682600Y-148590000D03*
%TD*%
%TO.P,UP1,1,COL*%
%TO.N,COL_13*%
X337820000Y-165116400D03*
%TO.P,UP1,2,ROW*%
%TO.N,Net-(D63-Pad2)*%
X331470000Y-167656400D03*
%TD*%
%TO.P,MX31,1,COL*%
%TO.N,COL_8*%
X242544600Y-126991000D03*
%TO.P,MX31,2,ROW*%
%TO.N,Net-(D38-Pad2)*%
X236194600Y-129531000D03*
%TD*%
%TO.P,MX35,1,COL*%
%TO.N,COL_9*%
X261594600Y-126991000D03*
%TO.P,MX35,2,ROW*%
%TO.N,Net-(D42-Pad2)*%
X255244600Y-129531000D03*
%TD*%
%TO.P,MX5,1,COL*%
%TO.N,COL_1*%
X104470200Y-165100000D03*
%TO.P,MX5,2,ROW*%
%TO.N,Net-(D9-Pad2)*%
X98120200Y-167640000D03*
%TD*%
%TO.P,MX42,1,COL*%
%TO.N,COL_11*%
X290195000Y-107950000D03*
%TO.P,MX42,2,ROW*%
%TO.N,Net-(D51-Pad2)*%
X283845000Y-110490000D03*
%TD*%
%TO.P,MX40,1,COL*%
%TO.N,COL_10*%
X285394400Y-146041000D03*
%TO.P,MX40,2,ROW*%
%TO.N,Net-(D48-Pad2)*%
X279044400Y-148581000D03*
%TD*%
%TO.P,MX7,1,COL*%
%TO.N,COL_2*%
X128244600Y-126991000D03*
%TO.P,MX7,2,ROW*%
%TO.N,Net-(D12-Pad2)*%
X121894600Y-129531000D03*
%TD*%
%TO.P,MX22,1,COL*%
%TO.N,COL_6*%
X194945000Y-107950000D03*
%TO.P,MX22,2,ROW*%
%TO.N,Net-(D28-Pad2)*%
X188595000Y-110490000D03*
%TD*%
%TO.P,MX19,1,COL*%
%TO.N,COL_5*%
X185394600Y-126991000D03*
%TO.P,MX19,2,ROW*%
%TO.N,Net-(D25-Pad2)*%
X179044600Y-129531000D03*
%TD*%
%TO.P,MX37,1,COL*%
%TO.N,COL_9*%
X256844800Y-165091000D03*
%TO.P,MX37,2,ROW*%
%TO.N,Net-(D44-Pad2)*%
X250494800Y-167631000D03*
%TD*%
%TO.P,MX17,1,COL*%
%TO.N,COL_4*%
X161594800Y-165091000D03*
%TO.P,MX17,2,ROW*%
%TO.N,Net-(D23-Pad2)*%
X155244800Y-167631000D03*
%TD*%
%TO.P,MX39,1,COL*%
%TO.N,COL_10*%
X280644600Y-126991000D03*
%TO.P,MX39,2,ROW*%
%TO.N,Net-(D47-Pad2)*%
X274294600Y-129531000D03*
%TD*%
%TO.P,MX20,1,COL*%
%TO.N,COL_5*%
X190119000Y-146041000D03*
%TO.P,MX20,2,ROW*%
%TO.N,Net-(D26-Pad2)*%
X183769000Y-148581000D03*
%TD*%
%TO.P,MX3,1,COL*%
%TO.N,COL_1*%
X109194600Y-126991000D03*
%TO.P,MX3,2,ROW*%
%TO.N,Net-(D7-Pad2)*%
X102844600Y-129531000D03*
%TD*%
%TO.P,MX21,1,COL*%
%TO.N,COL_5*%
X180644800Y-165091000D03*
%TO.P,MX21,2,ROW*%
%TO.N,Net-(D27-Pad2)*%
X174294800Y-167631000D03*
%TD*%
%TO.P,MX45,1,COL*%
%TO.N,COL_11*%
X294944800Y-165091000D03*
%TO.P,MX45,2,ROW*%
%TO.N,Net-(D54-Pad2)*%
X288594800Y-167631000D03*
%TD*%
%TO.P,MX1,1,COL*%
%TO.N,COL_0*%
X80645000Y-107950000D03*
%TO.P,MX1,2,ROW*%
%TO.N,Net-(D1-Pad2)*%
X74295000Y-110490000D03*
%TD*%
%TO.P,LFT1,1,COL*%
%TO.N,COL_11*%
X318770000Y-184150000D03*
%TO.P,LFT1,2,ROW*%
%TO.N,Net-(D55-Pad2)*%
X312420000Y-186690000D03*
%TD*%
%TO.P,MX9,1,COL*%
%TO.N,COL_2*%
X123494800Y-165091000D03*
%TO.P,MX9,2,ROW*%
%TO.N,Net-(D14-Pad2)*%
X117144800Y-167631000D03*
%TD*%
%TO.P,MX44,1,COL*%
%TO.N,COL_11*%
X304469800Y-146041000D03*
%TO.P,MX44,2,ROW*%
%TO.N,Net-(D53-Pad2)*%
X298119800Y-148581000D03*
%TD*%
D14*
%TO.P,U1,1,GPIO0*%
%TO.N,CLK*%
X364667800Y-124451000D03*
%TO.P,U1,2,GPIO1*%
%TO.N,DT*%
X364667800Y-126991000D03*
D15*
%TO.P,U1,3,GND*%
%TO.N,GND*%
X364667800Y-129531000D03*
D14*
%TO.P,U1,4,GPIO2*%
%TO.N,COL_8*%
X364667800Y-132071000D03*
%TO.P,U1,5,GPIO3*%
%TO.N,COL_9*%
X364667800Y-134611000D03*
%TO.P,U1,6,GPIO4*%
%TO.N,COL_10*%
X364667800Y-137151000D03*
%TO.P,U1,7,GPIO5*%
%TO.N,COL_11*%
X364667800Y-139691000D03*
D15*
%TO.P,U1,8,GND*%
%TO.N,unconnected-(U1-Pad8)*%
X364667800Y-142231000D03*
D14*
%TO.P,U1,9,GPIO6*%
%TO.N,COL_12*%
X364667800Y-144771000D03*
%TO.P,U1,10,GPIO7*%
%TO.N,COL_13*%
X364667800Y-147311000D03*
%TO.P,U1,11,GPIO8*%
%TO.N,COL_7*%
X364667800Y-149851000D03*
%TO.P,U1,12,GPIO9*%
%TO.N,COL_6*%
X364667800Y-152391000D03*
D15*
%TO.P,U1,13,GND*%
%TO.N,unconnected-(U1-Pad13)*%
X364667800Y-154931000D03*
D14*
%TO.P,U1,14,GPIO10*%
%TO.N,COL_5*%
X364667800Y-157471000D03*
%TO.P,U1,15,GPIO11*%
%TO.N,COL_4*%
X364667800Y-160011000D03*
%TO.P,U1,16,GPIO12*%
%TO.N,COL_3*%
X364667800Y-162551000D03*
%TO.P,U1,17,GPIO13*%
%TO.N,COL_0*%
X364667800Y-165091000D03*
D15*
%TO.P,U1,18,GND*%
%TO.N,unconnected-(U1-Pad18)*%
X364667800Y-167631000D03*
D14*
%TO.P,U1,19,GPIO14*%
%TO.N,COL_1*%
X364667800Y-170171000D03*
%TO.P,U1,20,GPIO15*%
%TO.N,COL_2*%
X364667800Y-172711000D03*
%TO.P,U1,21,GPIO16*%
%TO.N,ROW_4*%
X346887800Y-172711000D03*
%TO.P,U1,22,GPIO17*%
%TO.N,ROW_3*%
X346887800Y-170171000D03*
D15*
%TO.P,U1,23,GND*%
%TO.N,unconnected-(U1-Pad23)*%
X346887800Y-167631000D03*
D14*
%TO.P,U1,24,GPIO18*%
%TO.N,ROW_2*%
X346887800Y-165091000D03*
%TO.P,U1,25,GPIO19*%
%TO.N,ROW_1*%
X346887800Y-162551000D03*
%TO.P,U1,26,GPIO20*%
%TO.N,ROW_0*%
X346887800Y-160011000D03*
%TO.P,U1,27,GPIO21*%
%TO.N,unconnected-(U1-Pad27)*%
X346887800Y-157471000D03*
D15*
%TO.P,U1,28,GND*%
%TO.N,unconnected-(U1-Pad28)*%
X346887800Y-154931000D03*
D14*
%TO.P,U1,29,GPIO22*%
%TO.N,unconnected-(U1-Pad29)*%
X346887800Y-152391000D03*
%TO.P,U1,30,RUN*%
%TO.N,unconnected-(U1-Pad30)*%
X346887800Y-149851000D03*
%TO.P,U1,31,GPIO26_ADC0*%
%TO.N,unconnected-(U1-Pad31)*%
X346887800Y-147311000D03*
%TO.P,U1,32,GPIO27_ADC1*%
%TO.N,unconnected-(U1-Pad32)*%
X346887800Y-144771000D03*
D15*
%TO.P,U1,33,AGND*%
%TO.N,unconnected-(U1-Pad33)*%
X346887800Y-142231000D03*
D14*
%TO.P,U1,34,GPIO28_ADC2*%
%TO.N,unconnected-(U1-Pad34)*%
X346887800Y-139691000D03*
%TO.P,U1,35,ADC_VREF*%
%TO.N,unconnected-(U1-Pad35)*%
X346887800Y-137151000D03*
%TO.P,U1,36,3V3*%
%TO.N,unconnected-(U1-Pad36)*%
X346887800Y-134611000D03*
%TO.P,U1,37,3V3_EN*%
%TO.N,unconnected-(U1-Pad37)*%
X346887800Y-132071000D03*
D15*
%TO.P,U1,38,GND*%
%TO.N,unconnected-(U1-Pad38)*%
X346887800Y-129531000D03*
D14*
%TO.P,U1,39,VSYS*%
%TO.N,unconnected-(U1-Pad39)*%
X346887800Y-126991000D03*
%TO.P,U1,40,VBUS*%
%TO.N,unconnected-(U1-Pad40)*%
X346887800Y-124451000D03*
%TO.P,U1,41,SWCLK*%
%TO.N,unconnected-(U1-Pad41)*%
X358317800Y-172481000D03*
D15*
%TO.P,U1,42,GND*%
%TO.N,unconnected-(U1-Pad42)*%
X355777800Y-172481000D03*
D14*
%TO.P,U1,43,SWDIO*%
%TO.N,unconnected-(U1-Pad43)*%
X353237800Y-172481000D03*
%TD*%
D16*
%TO.N,COL_2*%
X118745000Y-110363000D02*
X119634000Y-111252000D01*
X123494800Y-167436800D02*
X124460000Y-168402000D01*
X128244600Y-129514600D02*
X129032000Y-130302000D01*
X129032000Y-130302000D02*
X129032000Y-140970000D01*
X133858000Y-154727800D02*
X123494800Y-165091000D01*
X368046000Y-188093980D02*
X368046000Y-173990000D01*
X129032000Y-142104000D02*
X129032000Y-140970000D01*
X254600396Y-194274000D02*
X361865980Y-194274000D01*
X128778000Y-184150000D02*
X130683000Y-184150000D01*
X361865980Y-194274000D02*
X368046000Y-188093980D01*
X124460000Y-179832000D02*
X128778000Y-184150000D01*
X124714000Y-127000000D02*
X124723000Y-126991000D01*
X123494800Y-165091000D02*
X123494800Y-167436800D01*
X124723000Y-126991000D02*
X128244600Y-126991000D01*
X132969000Y-146041000D02*
X132969000Y-148463000D01*
X132969000Y-148463000D02*
X133858000Y-149352000D01*
X152489604Y-194274000D02*
X243747604Y-194274000D01*
X243747604Y-194274000D02*
X244415604Y-193606000D01*
X119634000Y-121920000D02*
X124714000Y-127000000D01*
X142365604Y-184150000D02*
X152489604Y-194274000D01*
X253932396Y-193606000D02*
X254600396Y-194274000D01*
X124460000Y-168402000D02*
X124460000Y-179832000D01*
X366767000Y-172711000D02*
X364667800Y-172711000D01*
X128244600Y-126991000D02*
X128244600Y-129514600D01*
X133858000Y-149352000D02*
X133858000Y-154727800D01*
X132969000Y-146041000D02*
X129032000Y-142104000D01*
X118745000Y-107941000D02*
X118745000Y-110363000D01*
X119634000Y-111252000D02*
X119634000Y-121920000D01*
X368046000Y-173990000D02*
X366767000Y-172711000D01*
X244415604Y-193606000D02*
X253932396Y-193606000D01*
X130683000Y-184150000D02*
X142365604Y-184150000D01*
%TO.N,COL_9*%
X257810000Y-180340000D02*
X261620000Y-184150000D01*
X347269188Y-104822000D02*
X271352000Y-104822000D01*
X252095000Y-109855000D02*
X252730000Y-110490000D01*
X261620000Y-184150000D02*
X273532600Y-184150000D01*
X360680000Y-118232812D02*
X347269188Y-104822000D01*
X266344400Y-146041000D02*
X266344400Y-148234400D01*
X266344400Y-148234400D02*
X267208000Y-149098000D01*
X252730000Y-121920000D02*
X257801000Y-126991000D01*
X257810000Y-169164000D02*
X257810000Y-180340000D01*
X360680000Y-132588000D02*
X360680000Y-118232812D01*
X364667800Y-134611000D02*
X362703000Y-134611000D01*
X256844800Y-165091000D02*
X256844800Y-168198800D01*
X262636000Y-142332600D02*
X266344400Y-146041000D01*
X252730000Y-110490000D02*
X252730000Y-121920000D01*
X267208000Y-149098000D02*
X267208000Y-154727800D01*
X252095000Y-107950000D02*
X252095000Y-109855000D01*
X271352000Y-104822000D02*
X268224000Y-107950000D01*
X257801000Y-126991000D02*
X261594600Y-126991000D01*
X261594600Y-128752600D02*
X262636000Y-129794000D01*
X256844800Y-168198800D02*
X257810000Y-169164000D01*
X362703000Y-134611000D02*
X360680000Y-132588000D01*
X262636000Y-129794000D02*
X262636000Y-142332600D01*
X268224000Y-107950000D02*
X252095000Y-107950000D01*
X261594600Y-126991000D02*
X261594600Y-128752600D01*
X267208000Y-154727800D02*
X256844800Y-165091000D01*
%TO.N,COL_13*%
X338328000Y-168656000D02*
X338328000Y-174498000D01*
X355337000Y-147311000D02*
X349170000Y-141144000D01*
X349170000Y-113204000D02*
X348987000Y-113021000D01*
X338328000Y-174498000D02*
X340868000Y-177038000D01*
X338582000Y-130302000D02*
X338582000Y-161036000D01*
X348987000Y-113021000D02*
X346826000Y-113021000D01*
X337820000Y-165116400D02*
X337820000Y-168148000D01*
X337820000Y-117602000D02*
X342401000Y-113021000D01*
X349170000Y-141144000D02*
X349170000Y-113204000D01*
X342401000Y-113021000D02*
X346826000Y-113021000D01*
X354330000Y-177038000D02*
X356870000Y-179578000D01*
X337820000Y-168148000D02*
X338328000Y-168656000D01*
X337330000Y-107950000D02*
X342401000Y-113021000D01*
X364667800Y-147311000D02*
X355337000Y-147311000D01*
X340868000Y-177038000D02*
X354330000Y-177038000D01*
X338582000Y-161036000D02*
X337820000Y-161798000D01*
X333044800Y-107950000D02*
X337330000Y-107950000D01*
X337820000Y-127000000D02*
X337820000Y-129540000D01*
X337820000Y-129540000D02*
X338582000Y-130302000D01*
X337820000Y-161798000D02*
X337820000Y-165116400D01*
X356870000Y-179578000D02*
X356870000Y-184150000D01*
X337820000Y-117602000D02*
X337820000Y-127000000D01*
%TO.N,COL_0*%
X367783000Y-165091000D02*
X364667800Y-165091000D01*
X85598000Y-184150000D02*
X94177396Y-192729396D01*
X85394800Y-129590800D02*
X86106000Y-130302000D01*
X83032600Y-167614600D02*
X84074000Y-168656000D01*
X84074000Y-168656000D02*
X84074000Y-183108600D01*
X83032600Y-184150000D02*
X85598000Y-184150000D01*
X85394800Y-127000000D02*
X85394800Y-129590800D01*
X86106000Y-142976600D02*
X83032600Y-146050000D01*
X84074000Y-149606000D02*
X84074000Y-164058600D01*
X244120396Y-195174000D02*
X244788396Y-194506000D01*
X152116812Y-195174000D02*
X244120396Y-195174000D01*
X362238772Y-195174000D02*
X368946000Y-188466772D01*
X254160000Y-195174000D02*
X362238772Y-195174000D01*
X81534000Y-120904000D02*
X85394800Y-124764800D01*
X85394800Y-124764800D02*
X85394800Y-127000000D01*
X83032600Y-146050000D02*
X83032600Y-148564600D01*
X368946000Y-188466772D02*
X368946000Y-166254000D01*
X149672208Y-192729396D02*
X152116812Y-195174000D01*
X83032600Y-165100000D02*
X83032600Y-167614600D01*
X84074000Y-164058600D02*
X83032600Y-165100000D01*
X80645000Y-107950000D02*
X80645000Y-111125000D01*
X86106000Y-130302000D02*
X86106000Y-142976600D01*
X94177396Y-192729396D02*
X149672208Y-192729396D01*
X83032600Y-148564600D02*
X84074000Y-149606000D01*
X244788396Y-194506000D02*
X253492000Y-194506000D01*
X253492000Y-194506000D02*
X254160000Y-195174000D01*
X84074000Y-183108600D02*
X83032600Y-184150000D01*
X80645000Y-111125000D02*
X81534000Y-112014000D01*
X368946000Y-166254000D02*
X367783000Y-165091000D01*
X81534000Y-112014000D02*
X81534000Y-120904000D01*
%TO.N,COL_12*%
X319786000Y-130810000D02*
X319786000Y-142240000D01*
X318744600Y-126991000D02*
X318744600Y-129768600D01*
X319532000Y-180086000D02*
X333756000Y-180086000D01*
X316382400Y-167030400D02*
X317246000Y-167894000D01*
X333756000Y-180086000D02*
X337820000Y-184150000D01*
X353501000Y-144771000D02*
X364667800Y-144771000D01*
X329946000Y-107950000D02*
X331724000Y-106172000D01*
X349620000Y-140890000D02*
X353501000Y-144771000D01*
X330682600Y-148056600D02*
X331470000Y-148844000D01*
X330682600Y-146050000D02*
X330682600Y-148056600D01*
X331470000Y-153670000D02*
X320049000Y-165091000D01*
X309245000Y-107950000D02*
X329946000Y-107950000D01*
X323596000Y-146050000D02*
X330682600Y-146050000D01*
X331470000Y-148844000D02*
X331470000Y-153670000D01*
X319786000Y-142240000D02*
X323596000Y-146050000D01*
X331724000Y-106172000D02*
X346710000Y-106172000D01*
X309245000Y-107950000D02*
X309245000Y-110109000D01*
X309880000Y-121920000D02*
X314951000Y-126991000D01*
X309245000Y-110109000D02*
X309880000Y-110744000D01*
X318744600Y-129768600D02*
X319786000Y-130810000D01*
X314951000Y-126991000D02*
X318744600Y-126991000D01*
X309880000Y-110744000D02*
X309880000Y-121920000D01*
X349620000Y-109082000D02*
X349620000Y-140890000D01*
X316382400Y-165091000D02*
X316382400Y-167030400D01*
X346710000Y-106172000D02*
X349620000Y-109082000D01*
X317246000Y-177800000D02*
X319532000Y-180086000D01*
X320049000Y-165091000D02*
X316382400Y-165091000D01*
X317246000Y-167894000D02*
X317246000Y-177800000D01*
%TO.N,COL_10*%
X350520000Y-108709208D02*
X350520000Y-137414000D01*
X280644600Y-129260600D02*
X281686000Y-130302000D01*
X286258000Y-148844000D02*
X286258000Y-154727800D01*
X281686000Y-130302000D02*
X281686000Y-142332600D01*
X275894800Y-165091000D02*
X275894800Y-167436800D01*
X351536000Y-138430000D02*
X360680000Y-138430000D01*
X281686000Y-142332600D02*
X285394400Y-146041000D01*
X287274000Y-107950000D02*
X289952000Y-105272000D01*
X272034000Y-110744000D02*
X272034000Y-121920000D01*
X347082792Y-105272000D02*
X350520000Y-108709208D01*
X271145000Y-107950000D02*
X271145000Y-109855000D01*
X280644600Y-126991000D02*
X280644600Y-129260600D01*
X285394400Y-147980400D02*
X286258000Y-148844000D01*
X350520000Y-137414000D02*
X351536000Y-138430000D01*
X360680000Y-138430000D02*
X361959000Y-137151000D01*
X276860000Y-168402000D02*
X276860000Y-180340000D01*
X272034000Y-121920000D02*
X277105000Y-126991000D01*
X286258000Y-154727800D02*
X275894800Y-165091000D01*
X276860000Y-180340000D02*
X280670000Y-184150000D01*
X289952000Y-105272000D02*
X347082792Y-105272000D01*
X280670000Y-184150000D02*
X297332400Y-184150000D01*
X275894800Y-167436800D02*
X276860000Y-168402000D01*
X361959000Y-137151000D02*
X364667800Y-137151000D01*
X277105000Y-126991000D02*
X280644600Y-126991000D01*
X271145000Y-109855000D02*
X272034000Y-110744000D01*
X285394400Y-146041000D02*
X285394400Y-147980400D01*
X271145000Y-107950000D02*
X287274000Y-107950000D01*
%TO.N,COL_11*%
X299694600Y-129260600D02*
X300990000Y-130556000D01*
X350070000Y-108895604D02*
X350070000Y-137600396D01*
X351407604Y-138938000D02*
X360680000Y-138938000D01*
X346896396Y-105722000D02*
X350070000Y-108895604D01*
X290195000Y-109855000D02*
X290830000Y-110490000D01*
X360680000Y-138938000D02*
X361442000Y-139700000D01*
X295901000Y-126991000D02*
X299694600Y-126991000D01*
X350070000Y-137600396D02*
X351407604Y-138938000D01*
X290195000Y-107950000D02*
X306324000Y-107950000D01*
X300990000Y-142561200D02*
X304469800Y-146041000D01*
X304469800Y-146041000D02*
X304469800Y-148005800D01*
X306324000Y-107950000D02*
X308552000Y-105722000D01*
X361442000Y-139700000D02*
X364658800Y-139700000D01*
X314960000Y-180340000D02*
X318770000Y-184150000D01*
X297942000Y-180340000D02*
X314960000Y-180340000D01*
X294944800Y-167436800D02*
X295656000Y-168148000D01*
X295656000Y-168148000D02*
X295656000Y-178054000D01*
X304469800Y-148005800D02*
X305308000Y-148844000D01*
X294944800Y-165091000D02*
X294944800Y-167436800D01*
X290195000Y-107950000D02*
X290195000Y-109855000D01*
X308552000Y-105722000D02*
X346896396Y-105722000D01*
X295656000Y-178054000D02*
X297942000Y-180340000D01*
X290830000Y-110490000D02*
X290830000Y-121920000D01*
X290830000Y-121920000D02*
X295901000Y-126991000D01*
X305308000Y-154727800D02*
X294944800Y-165091000D01*
X305308000Y-148844000D02*
X305308000Y-154727800D01*
X300990000Y-130556000D02*
X300990000Y-142561200D01*
X299694600Y-126991000D02*
X299694600Y-129260600D01*
X364658800Y-139700000D02*
X364667800Y-139691000D01*
%TO.N,COL_1*%
X243934000Y-194724000D02*
X152303208Y-194724000D01*
X99695000Y-107950000D02*
X99695000Y-110109000D01*
X367529000Y-170171000D02*
X368496000Y-171138000D01*
X105410000Y-182702200D02*
X106857800Y-184150000D01*
X109982000Y-142104000D02*
X113919000Y-146041000D01*
X105410000Y-168656000D02*
X105410000Y-182702200D01*
X253746000Y-194056000D02*
X244602000Y-194056000D01*
X109194600Y-126991000D02*
X109194600Y-129514600D01*
X362052376Y-194724000D02*
X254414000Y-194724000D01*
X152303208Y-194724000D02*
X149858604Y-192279396D01*
X368496000Y-171138000D02*
X368496000Y-188280376D01*
X364667800Y-170171000D02*
X367529000Y-170171000D01*
X149858604Y-192279396D02*
X117603396Y-192279396D01*
X109474000Y-184150000D02*
X106857800Y-184150000D01*
X114808000Y-149352000D02*
X114808000Y-154762200D01*
X99695000Y-110109000D02*
X100330000Y-110744000D01*
X100330000Y-122174000D02*
X105147000Y-126991000D01*
X104470200Y-165100000D02*
X104470200Y-167716200D01*
X113919000Y-146041000D02*
X113919000Y-148463000D01*
X117603396Y-192279396D02*
X109474000Y-184150000D01*
X113919000Y-148463000D02*
X114808000Y-149352000D01*
X109982000Y-130302000D02*
X109982000Y-142104000D01*
X109194600Y-129514600D02*
X109982000Y-130302000D01*
X105147000Y-126991000D02*
X109194600Y-126991000D01*
X244602000Y-194056000D02*
X243934000Y-194724000D01*
X100330000Y-110744000D02*
X100330000Y-122174000D01*
X254414000Y-194724000D02*
X253746000Y-194056000D01*
X104470200Y-167716200D02*
X105410000Y-168656000D01*
X368496000Y-188280376D02*
X362052376Y-194724000D01*
X114808000Y-154762200D02*
X104470200Y-165100000D01*
%TO.N,COL_3*%
X148336000Y-142358000D02*
X152019000Y-146041000D01*
X143510000Y-168148000D02*
X142544800Y-167182800D01*
X254786792Y-193824000D02*
X254118792Y-193156000D01*
X362734000Y-163496000D02*
X362734000Y-192769584D01*
X138430000Y-110744000D02*
X138430000Y-121920000D01*
X363679000Y-162551000D02*
X362734000Y-163496000D01*
X143501000Y-126991000D02*
X147294600Y-126991000D01*
X362734000Y-192769584D02*
X361679584Y-193824000D01*
X152676000Y-193824000D02*
X143510000Y-184658000D01*
X254118792Y-193156000D02*
X244229208Y-193156000D01*
X148336000Y-130810000D02*
X148336000Y-142358000D01*
X138430000Y-121920000D02*
X143501000Y-126991000D01*
X147294600Y-126991000D02*
X147294600Y-129768600D01*
X361679584Y-193824000D02*
X254786792Y-193824000D01*
X152654000Y-154981800D02*
X142544800Y-165091000D01*
X137795000Y-107941000D02*
X137795000Y-110109000D01*
X244229208Y-193156000D02*
X243561208Y-193824000D01*
X152654000Y-149352000D02*
X152654000Y-154981800D01*
X152019000Y-148717000D02*
X152654000Y-149352000D01*
X137795000Y-110109000D02*
X138430000Y-110744000D01*
X152019000Y-146041000D02*
X152019000Y-148717000D01*
X143510000Y-184658000D02*
X143510000Y-168148000D01*
X147294600Y-129768600D02*
X148336000Y-130810000D01*
X364667800Y-162551000D02*
X363679000Y-162551000D01*
X243561208Y-193824000D02*
X152676000Y-193824000D01*
X142544800Y-167182800D02*
X142544800Y-165091000D01*
%TO.N,COL_4*%
X162306000Y-184658000D02*
X171022000Y-193374000D01*
X171069000Y-148463000D02*
X171704000Y-149098000D01*
X157734000Y-121920000D02*
X162805000Y-126991000D01*
X157734000Y-110998000D02*
X157734000Y-121920000D01*
X254305188Y-192706000D02*
X254973188Y-193374000D01*
X162805000Y-126991000D02*
X166344600Y-126991000D01*
X171069000Y-146041000D02*
X167132000Y-142104000D01*
X243374812Y-193374000D02*
X244042812Y-192706000D01*
X167132000Y-142104000D02*
X167132000Y-141732000D01*
X161594800Y-167690800D02*
X162306000Y-168402000D01*
X254973188Y-193374000D02*
X361493188Y-193374000D01*
X171704000Y-154981800D02*
X161594800Y-165091000D01*
X362284000Y-192583188D02*
X362284000Y-160702000D01*
X171069000Y-146041000D02*
X171069000Y-148463000D01*
X166344600Y-126991000D02*
X166344600Y-129768600D01*
X156845000Y-110109000D02*
X157734000Y-110998000D01*
X361493188Y-193374000D02*
X362284000Y-192583188D01*
X171704000Y-149098000D02*
X171704000Y-154981800D01*
X244042812Y-192706000D02*
X254305188Y-192706000D01*
X166344600Y-129768600D02*
X167132000Y-130556000D01*
X156845000Y-107950000D02*
X156845000Y-110109000D01*
X362975000Y-160011000D02*
X364667800Y-160011000D01*
X167132000Y-130556000D02*
X167132000Y-141732000D01*
X161594800Y-165091000D02*
X161594800Y-167690800D01*
X162306000Y-168402000D02*
X162306000Y-184658000D01*
X171022000Y-193374000D02*
X243374812Y-193374000D01*
X362284000Y-160702000D02*
X362975000Y-160011000D01*
%TO.N,COL_5*%
X361834000Y-192396792D02*
X361306792Y-192924000D01*
X175895000Y-109601000D02*
X176784000Y-110490000D01*
X185394600Y-126991000D02*
X185394600Y-129260600D01*
X254491584Y-192256000D02*
X243856416Y-192256000D01*
X186436000Y-142358000D02*
X190119000Y-146041000D01*
X185394600Y-129260600D02*
X186436000Y-130302000D01*
X243856416Y-192256000D02*
X243188416Y-192924000D01*
X361834000Y-158612000D02*
X361834000Y-192396792D01*
X175895000Y-107950000D02*
X175895000Y-109601000D01*
X361306792Y-192924000D02*
X255159584Y-192924000D01*
X186828000Y-192924000D02*
X181356000Y-187452000D01*
X181855000Y-126991000D02*
X185394600Y-126991000D01*
X190119000Y-148209000D02*
X191008000Y-149098000D01*
X186436000Y-130302000D02*
X186436000Y-142358000D01*
X180644800Y-167944800D02*
X180644800Y-165091000D01*
X191008000Y-154727800D02*
X180644800Y-165091000D01*
X176784000Y-110490000D02*
X176784000Y-121920000D01*
X362975000Y-157471000D02*
X361834000Y-158612000D01*
X364667800Y-157471000D02*
X362975000Y-157471000D01*
X181356000Y-168656000D02*
X180644800Y-167944800D01*
X176784000Y-121920000D02*
X181855000Y-126991000D01*
X255159584Y-192924000D02*
X254491584Y-192256000D01*
X181356000Y-187452000D02*
X181356000Y-168656000D01*
X190119000Y-146041000D02*
X190119000Y-148209000D01*
X243188416Y-192924000D02*
X186828000Y-192924000D01*
X191008000Y-149098000D02*
X191008000Y-154727800D01*
%TO.N,COL_6*%
X243670020Y-191806000D02*
X244856000Y-191806000D01*
X195834000Y-110490000D02*
X195834000Y-121920000D01*
X210058000Y-148336000D02*
X210058000Y-154727800D01*
X205232000Y-142104000D02*
X209169000Y-146041000D01*
X218804404Y-184134800D02*
X227138802Y-192469198D01*
X244856000Y-191806000D02*
X254677980Y-191806000D01*
X200905000Y-126991000D02*
X204444600Y-126991000D01*
X209169000Y-147447000D02*
X210058000Y-148336000D01*
X254677980Y-191806000D02*
X255345980Y-192474000D01*
X227138802Y-192469198D02*
X227143604Y-192474000D01*
X243002020Y-192474000D02*
X243670020Y-191806000D01*
X361384000Y-192210396D02*
X361384000Y-154178000D01*
X209169000Y-146041000D02*
X209169000Y-147447000D01*
X313944000Y-192474000D02*
X361120396Y-192474000D01*
X200406000Y-180340000D02*
X202107800Y-182041800D01*
X227143604Y-192474000D02*
X243002020Y-192474000D01*
X210058000Y-154727800D02*
X199694800Y-165091000D01*
X363171000Y-152391000D02*
X364667800Y-152391000D01*
X204444600Y-129260600D02*
X205232000Y-130048000D01*
X199694800Y-167944800D02*
X200406000Y-168656000D01*
X202107800Y-184134800D02*
X218804404Y-184134800D01*
X195834000Y-121920000D02*
X200905000Y-126991000D01*
X361120396Y-192474000D02*
X361384000Y-192210396D01*
X204444600Y-126991000D02*
X204444600Y-129260600D01*
X202107800Y-182041800D02*
X202107800Y-184134800D01*
X361384000Y-154178000D02*
X363171000Y-152391000D01*
X194945000Y-107950000D02*
X194945000Y-109601000D01*
X361120396Y-192474000D02*
X361379198Y-192215198D01*
X255345980Y-192474000D02*
X313944000Y-192474000D01*
X200406000Y-168656000D02*
X200406000Y-180340000D01*
X199694800Y-165091000D02*
X199694800Y-167944800D01*
X205232000Y-130048000D02*
X205232000Y-142104000D01*
X194945000Y-109601000D02*
X195834000Y-110490000D01*
%TO.N,COL_7*%
X219456000Y-168402000D02*
X218744800Y-167690800D01*
X254864376Y-191356000D02*
X243483624Y-191356000D01*
X360934000Y-151638000D02*
X360934000Y-192024000D01*
X227330000Y-192024000D02*
X219456000Y-184150000D01*
X255532376Y-192024000D02*
X254864376Y-191356000D01*
X243483624Y-191356000D02*
X242815624Y-192024000D01*
X213995000Y-107950000D02*
X213995000Y-109855000D01*
X228219000Y-146041000D02*
X224282000Y-142104000D01*
X219456000Y-184150000D02*
X219456000Y-168402000D01*
X223494600Y-129260600D02*
X224282000Y-130048000D01*
X362721000Y-149851000D02*
X360934000Y-151638000D01*
X214630000Y-121920000D02*
X219701000Y-126991000D01*
X213995000Y-109855000D02*
X214630000Y-110490000D01*
X360934000Y-192024000D02*
X255532376Y-192024000D01*
X214630000Y-110490000D02*
X214630000Y-121920000D01*
X224282000Y-142104000D02*
X224282000Y-141224000D01*
X228854000Y-148336000D02*
X228854000Y-154981800D01*
X228854000Y-154981800D02*
X218744800Y-165091000D01*
X223494600Y-126991000D02*
X223494600Y-129260600D01*
X242815624Y-192024000D02*
X227330000Y-192024000D01*
X219701000Y-126991000D02*
X223494600Y-126991000D01*
X228219000Y-146041000D02*
X228219000Y-147701000D01*
X228219000Y-147701000D02*
X228854000Y-148336000D01*
X224282000Y-130048000D02*
X224282000Y-141224000D01*
X218744800Y-167690800D02*
X218744800Y-165091000D01*
X364667800Y-149851000D02*
X362721000Y-149851000D01*
%TO.N,COL_8*%
X242544600Y-126991000D02*
X242544600Y-128752600D01*
X233045000Y-109855000D02*
X233680000Y-110490000D01*
X243332000Y-129540000D02*
X243332000Y-141732000D01*
X248158000Y-154727800D02*
X237794800Y-165091000D01*
X233045000Y-107950000D02*
X233045000Y-109855000D01*
X361130000Y-131064000D02*
X362137000Y-132071000D01*
X233045000Y-107950000D02*
X249174000Y-107950000D01*
X249174000Y-107950000D02*
X252752000Y-104372000D01*
X233680000Y-121920000D02*
X238751000Y-126991000D01*
X248158000Y-148590000D02*
X248158000Y-154727800D01*
X247269000Y-147701000D02*
X248158000Y-148590000D01*
X243332000Y-142104000D02*
X243332000Y-141732000D01*
X362137000Y-132071000D02*
X364667800Y-132071000D01*
X238751000Y-126991000D02*
X242544600Y-126991000D01*
X247269000Y-146041000D02*
X243332000Y-142104000D01*
X233680000Y-110490000D02*
X233680000Y-121920000D01*
X361130000Y-118046416D02*
X361130000Y-131064000D01*
X347455584Y-104372000D02*
X361130000Y-118046416D01*
X247269000Y-146041000D02*
X247269000Y-147701000D01*
X242544600Y-128752600D02*
X243332000Y-129540000D01*
X252752000Y-104372000D02*
X347455584Y-104372000D01*
%TD*%
M02*
