M48
; DRILL file {KiCad (6.0.8)} date Mon Oct 10 22:04:58 2022
; FORMAT={-:-/ absolute / inch / decimal}
; #@! TF.CreationDate,2022-10-10T22:04:58+01:00
; #@! TF.GenerationSoftware,Kicad,Pcbnew,(6.0.8)
; #@! TF.FileFunction,Plated,1,2,PTH
FMAT,2
INCH
; #@! TA.AperFunction,Plated,PTH,ComponentDrill
T1C0.0394
; #@! TA.AperFunction,Plated,PTH,ComponentDrill
T2C0.0402
; #@! TA.AperFunction,Plated,PTH,ComponentDrill
T3C0.0591
%
G90
G05
T1
X13.6546Y-4.3512
X13.6546Y-4.4496
X13.6546Y-4.5481
X14.2254Y-4.3512
X14.2254Y-4.5481
T2
X13.657Y-4.8996
X13.657Y-4.9996
X13.657Y-5.0996
X13.657Y-5.1996
X13.657Y-5.2996
X13.657Y-5.3996
X13.657Y-5.4996
X13.657Y-5.5996
X13.657Y-5.6996
X13.657Y-5.7996
X13.657Y-5.8996
X13.657Y-5.9996
X13.657Y-6.0996
X13.657Y-6.1996
X13.657Y-6.2996
X13.657Y-6.3996
X13.657Y-6.4996
X13.657Y-6.5996
X13.657Y-6.6996
X13.657Y-6.7996
X13.907Y-6.7906
X14.007Y-6.7906
X14.107Y-6.7906
X14.357Y-4.8996
X14.357Y-4.9996
X14.357Y-5.0996
X14.357Y-5.1996
X14.357Y-5.2996
X14.357Y-5.3996
X14.357Y-5.4996
X14.357Y-5.5996
X14.357Y-5.6996
X14.357Y-5.7996
X14.357Y-5.8996
X14.357Y-5.9996
X14.357Y-6.0996
X14.357Y-6.1996
X14.357Y-6.2996
X14.357Y-6.3996
X14.357Y-6.4996
X14.357Y-6.5996
X14.357Y-6.6996
X14.357Y-6.7996
T3
X2.925Y-4.35
X3.019Y-5.85
X3.019Y-6.6
X3.019Y-7.35
X3.112Y-5.1
X3.175Y-4.25
X3.269Y-5.75
X3.269Y-6.5
X3.269Y-7.25
X3.362Y-5.0
X3.675Y-4.35
X3.863Y-6.6
X3.925Y-4.25
X3.957Y-7.35
X4.049Y-5.0996
X4.113Y-6.5
X4.207Y-7.25
X4.235Y-5.8496
X4.299Y-4.9996
X4.425Y-4.3496
X4.485Y-5.7496
X4.612Y-6.5996
X4.675Y-4.2496
X4.799Y-5.0996
X4.862Y-6.4996
X4.895Y-7.35
X4.985Y-5.8496
X5.049Y-4.9996
X5.145Y-7.25
X5.175Y-4.3496
X5.235Y-5.7496
X5.362Y-6.5996
X5.425Y-4.2496
X5.549Y-5.0996
X5.612Y-6.4996
X5.735Y-5.8496
X5.799Y-4.9996
X5.925Y-4.35
X5.985Y-5.7496
X6.112Y-6.5996
X6.175Y-4.25
X6.299Y-5.0996
X6.362Y-6.4996
X6.485Y-5.8496
X6.549Y-4.9996
X6.675Y-4.35
X6.735Y-5.7496
X6.862Y-6.5996
X6.925Y-4.25
X7.049Y-5.0996
X7.112Y-6.4996
X7.235Y-5.8496
X7.299Y-4.9996
X7.425Y-4.35
X7.485Y-5.7496
X7.612Y-6.5996
X7.675Y-4.25
X7.707Y-7.3494
X7.799Y-5.0996
X7.862Y-6.4996
X7.957Y-7.2494
X7.985Y-5.8496
X8.049Y-4.9996
X8.175Y-4.35
X8.235Y-5.7496
X8.362Y-6.5996
X8.425Y-4.25
X8.549Y-5.0996
X8.612Y-6.4996
X8.735Y-5.8496
X8.799Y-4.9996
X8.925Y-4.35
X8.985Y-5.7496
X9.112Y-6.5996
X9.175Y-4.25
X9.299Y-5.0996
X9.362Y-6.4996
X9.485Y-5.8496
X9.549Y-4.9996
X9.675Y-4.35
X9.735Y-5.7496
X9.862Y-6.5996
X9.925Y-4.25
X10.049Y-5.0996
X10.112Y-6.4996
X10.236Y-5.8496
X10.299Y-4.9996
X10.425Y-4.35
X10.486Y-5.7496
X10.519Y-7.35
X10.612Y-6.5996
X10.675Y-4.25
X10.769Y-7.25
X10.799Y-5.0996
X10.862Y-6.4996
X10.986Y-5.8496
X11.049Y-4.9996
X11.175Y-4.35
X11.236Y-5.7496
X11.362Y-6.5996
X11.425Y-4.25
X11.456Y-7.35
X11.549Y-5.0996
X11.612Y-6.4996
X11.706Y-7.25
X11.737Y-5.8496
X11.799Y-4.9996
X11.925Y-4.35
X11.987Y-5.7496
X12.175Y-4.25
X12.206Y-6.5996
X12.299Y-5.0996
X12.3Y-7.35
X12.456Y-6.4996
X12.549Y-4.9996
X12.55Y-7.25
X12.769Y-5.85
X12.862Y-4.35
X13.019Y-5.75
X13.05Y-5.1
X13.05Y-6.6006
X13.05Y-7.35
X13.112Y-4.25
X13.3Y-5.0
X13.3Y-6.5006
X13.3Y-7.25
X13.8Y-7.35
X14.05Y-7.25
T3
G00X13.9243Y-4.2292
M15
G01X13.9754Y-4.2292
M16
G05
G00X13.9243Y-4.6701
M15
G01X13.9754Y-4.6701
M16
G05
T0
M30
