M48
; DRILL file {KiCad (6.0.8)} date Mon Oct 10 20:20:58 2022
; FORMAT={-:-/ absolute / inch / decimal}
; #@! TF.CreationDate,2022-10-10T20:20:58+01:00
; #@! TF.GenerationSoftware,Kicad,Pcbnew,(6.0.8)
; #@! TF.FileFunction,NonPlated,1,2,NPTH
FMAT,2
INCH
; #@! TA.AperFunction,NonPlated,NPTH,ComponentDrill
T1C0.0591
; #@! TA.AperFunction,NonPlated,NPTH,ComponentDrill
T2C0.0669
; #@! TA.AperFunction,NonPlated,NPTH,ComponentDrill
T3C0.0709
; #@! TA.AperFunction,NonPlated,NPTH,ComponentDrill
T4C0.1201
; #@! TA.AperFunction,NonPlated,NPTH,ComponentDrill
T5C0.1575
%
G90
G05
T1
X13.9115Y-5.0241
X14.1025Y-5.0241
T2
X2.875Y-4.45
X2.969Y-5.95
X2.969Y-6.7
X2.969Y-7.45
X3.062Y-5.2
X3.275Y-4.45
X3.369Y-5.95
X3.369Y-6.7
X3.369Y-7.45
X3.462Y-5.2
X3.625Y-4.45
X3.813Y-6.7
X3.907Y-7.45
X3.999Y-5.1996
X4.025Y-4.45
X4.185Y-5.9496
X4.213Y-6.7
X4.307Y-7.45
X4.375Y-4.4496
X4.399Y-5.1996
X4.562Y-6.6996
X4.585Y-5.9496
X4.749Y-5.1996
X4.775Y-4.4496
X4.845Y-7.45
X4.935Y-5.9496
X4.962Y-6.6996
X5.125Y-4.4496
X5.149Y-5.1996
X5.245Y-7.45
X5.312Y-6.6996
X5.335Y-5.9496
X5.499Y-5.1996
X5.525Y-4.4496
X5.685Y-5.9496
X5.712Y-6.6996
X5.875Y-4.45
X5.899Y-5.1996
X6.062Y-6.6996
X6.085Y-5.9496
X6.249Y-5.1996
X6.275Y-4.45
X6.435Y-5.9496
X6.462Y-6.6996
X6.625Y-4.45
X6.649Y-5.1996
X6.812Y-6.6996
X6.835Y-5.9496
X6.999Y-5.1996
X7.025Y-4.45
X7.185Y-5.9496
X7.212Y-6.6996
X7.375Y-4.45
X7.399Y-5.1996
X7.562Y-6.6996
X7.585Y-5.9496
X7.657Y-7.4494
X7.749Y-5.1996
X7.775Y-4.45
X7.935Y-5.9496
X7.962Y-6.6996
X8.057Y-7.4494
X8.125Y-4.45
X8.149Y-5.1996
X8.312Y-6.6996
X8.335Y-5.9496
X8.499Y-5.1996
X8.525Y-4.45
X8.685Y-5.9496
X8.712Y-6.6996
X8.875Y-4.45
X8.899Y-5.1996
X9.062Y-6.6996
X9.085Y-5.9496
X9.249Y-5.1996
X9.275Y-4.45
X9.435Y-5.9496
X9.462Y-6.6996
X9.625Y-4.45
X9.649Y-5.1996
X9.812Y-6.6996
X9.835Y-5.9496
X9.999Y-5.1996
X10.025Y-4.45
X10.186Y-5.9496
X10.212Y-6.6996
X10.375Y-4.45
X10.399Y-5.1996
X10.469Y-7.45
X10.562Y-6.6996
X10.586Y-5.9496
X10.749Y-5.1996
X10.775Y-4.45
X10.869Y-7.45
X10.936Y-5.9496
X10.962Y-6.6996
X11.125Y-4.45
X11.149Y-5.1996
X11.312Y-6.6996
X11.336Y-5.9496
X11.406Y-7.45
X11.499Y-5.1996
X11.525Y-4.45
X11.687Y-5.9496
X11.712Y-6.6996
X11.806Y-7.45
X11.875Y-4.45
X11.899Y-5.1996
X12.087Y-5.9496
X12.156Y-6.6996
X12.249Y-5.1996
X12.25Y-7.45
X12.275Y-4.45
X12.556Y-6.6996
X12.649Y-5.1996
X12.65Y-7.45
X12.719Y-5.95
X12.812Y-4.45
X13.0Y-5.2
X13.0Y-6.7006
X13.0Y-7.45
X13.119Y-5.95
X13.212Y-4.45
X13.4Y-5.2
X13.4Y-6.7006
X13.4Y-7.45
X13.75Y-7.45
X14.15Y-7.45
T3
X13.8997Y-4.9048
X14.1143Y-4.9048
T4
X5.8885Y-7.1738
X9.8255Y-7.1738
T5
X3.075Y-4.45
X3.169Y-5.95
X3.169Y-6.7
X3.169Y-7.45
X3.262Y-5.2
X3.825Y-4.45
X4.013Y-6.7
X4.107Y-7.45
X4.199Y-5.1996
X4.385Y-5.9496
X4.575Y-4.4496
X4.762Y-6.6996
X4.949Y-5.1996
X5.045Y-7.45
X5.135Y-5.9496
X5.325Y-4.4496
X5.512Y-6.6996
X5.699Y-5.1996
X5.885Y-5.9496
X5.8885Y-7.7738
X6.075Y-4.45
X6.262Y-6.6996
X6.449Y-5.1996
X6.635Y-5.9496
X6.825Y-4.45
X7.012Y-6.6996
X7.199Y-5.1996
X7.385Y-5.9496
X7.575Y-4.45
X7.762Y-6.6996
X7.857Y-7.4494
X7.949Y-5.1996
X8.135Y-5.9496
X8.325Y-4.45
X8.512Y-6.6996
X8.699Y-5.1996
X8.885Y-5.9496
X9.075Y-4.45
X9.262Y-6.6996
X9.449Y-5.1996
X9.635Y-5.9496
X9.825Y-4.45
X9.8255Y-7.7738
X10.012Y-6.6996
X10.199Y-5.1996
X10.386Y-5.9496
X10.575Y-4.45
X10.669Y-7.45
X10.762Y-6.6996
X10.949Y-5.1996
X11.136Y-5.9496
X11.325Y-4.45
X11.512Y-6.6996
X11.606Y-7.45
X11.699Y-5.1996
X11.887Y-5.9496
X12.075Y-4.45
X12.356Y-6.6996
X12.449Y-5.1996
X12.45Y-7.45
X12.919Y-5.95
X13.012Y-4.45
X13.2Y-5.2
X13.2Y-6.7006
X13.2Y-7.45
X13.95Y-7.45
T0
M30
